<svg width="44" height="43" viewBox="0 0 44 43" fill="none" xmlns="http://www.w3.org/2000/svg">
<path d="M40.0264 30.4678C32.4326 42.1475 18.2462 43.9226 9.78418 40.9004L12.2139 34.0996C18.1955 36.2357 28.5623 34.8519 33.9717 26.5322L40.0264 30.4678ZM9.5957 0.0322266C9.88142 0.0322266 10.1639 0.0492311 10.4414 0.0800781C9.91789 0.659366 9.59679 1.42531 9.59668 2.26758C9.59668 4.0717 11.0592 5.53481 12.8633 5.53516C14.2553 5.53516 15.4435 4.66395 15.9141 3.4375C16.702 4.63142 17.1621 6.06114 17.1621 7.59863C17.1621 8.6018 16.965 9.55855 16.6104 10.4346C19.3842 9.21192 22.5835 7.93645 26.25 6.60938L28.707 13.4004C22.2491 15.7378 17.4821 17.8409 14.0703 19.6816C10.5978 21.5552 8.7695 23.031 7.93848 24.0166C7.93454 24.0213 7.93062 24.0266 7.92676 24.0312C8.11112 24.1096 8.34667 24.1993 8.64648 24.2881C11.2364 25.0548 15.6919 25.0709 19.7998 23.9531C21.8109 23.4059 23.5413 22.6372 24.8203 21.7207C26.0901 20.8107 26.7672 19.8694 27.0391 18.9629L30.4971 20L33.9561 21.0371C32.2679 26.666 26.5866 29.5911 21.6963 30.9219C16.6166 32.3041 10.7582 32.4454 6.5957 31.2129C4.64168 30.6343 2.14644 29.4817 0.951172 27.0781C-0.47081 24.2183 0.705126 21.393 2.41699 19.3623C3.65896 17.8891 5.47154 16.4281 7.8291 14.9541C4.50339 14.1581 2.03035 11.1683 2.03027 7.59863C2.03027 3.42036 5.4175 0.0325205 9.5957 0.0322266ZM36.4199 1.06348C36.7057 1.06348 36.9881 1.08048 37.2656 1.11133C36.7422 1.69068 36.4209 2.45652 36.4209 3.29883C36.4209 5.10292 37.8835 6.56508 39.6875 6.56543C41.0797 6.56543 42.2679 5.69445 42.7383 4.46777C43.5263 5.66168 43.9863 7.0914 43.9863 8.62891C43.9863 12.8074 40.5984 16.1953 36.4199 16.1953C32.2417 16.195 28.8545 12.8072 28.8545 8.62891C28.8547 4.45079 32.2418 1.06377 36.4199 1.06348Z" fill="#444444"/>
</svg>
